<svg width="512" height="512" viewBox="0 0 512 512" fill="none" xmlns="http://www.w3.org/2000/svg">
  <defs>
    <linearGradient id="bg" x1="72" y1="52" x2="448" y2="456" gradientUnits="userSpaceOnUse">
      <stop stop-color="#172436"/>
      <stop offset="0.58" stop-color="#0D1420"/>
      <stop offset="1" stop-color="#080D13"/>
    </linearGradient>
    <linearGradient id="panel" x1="120" y1="138" x2="398" y2="360" gradientUnits="userSpaceOnUse">
      <stop stop-color="#15283E"/>
      <stop offset="1" stop-color="#0D1826"/>
    </linearGradient>
    <linearGradient id="route" x1="142" y1="250" x2="340" y2="270" gradientUnits="userSpaceOnUse">
      <stop stop-color="#88E4FF"/>
      <stop offset="1" stop-color="#58A6FF"/>
    </linearGradient>
    <filter id="shadow" x="74" y="100" width="360" height="320" filterUnits="userSpaceOnUse" color-interpolation-filters="sRGB">
      <feFlood flood-opacity="0" result="BackgroundImageFix"/>
      <feColorMatrix in="SourceAlpha" type="matrix" values="0 0 0 0 0 0 0 0 0 0 0 0 0 0 0 0 0 0 127 0" result="hardAlpha"/>
      <feOffset dy="18"/>
      <feGaussianBlur stdDeviation="18"/>
      <feComposite in2="hardAlpha" operator="out"/>
      <feColorMatrix type="matrix" values="0 0 0 0 0.0156863 0 0 0 0 0.0470588 0 0 0 0 0.101961 0 0 0 0.52 0"/>
      <feBlend mode="normal" in2="BackgroundImageFix" result="effect1_dropShadow"/>
      <feBlend mode="normal" in="SourceGraphic" in2="effect1_dropShadow" result="shape"/>
    </filter>
  </defs>

  <rect x="28" y="28" width="456" height="456" rx="96" fill="url(#bg)"/>
  <rect x="30" y="30" width="452" height="452" rx="94" stroke="#2B4668" stroke-width="4"/>

  <g opacity="0.22">
    <path d="M70 150H442" stroke="#26384E" stroke-width="2"/>
    <path d="M70 256H442" stroke="#26384E" stroke-width="2"/>
    <path d="M70 362H442" stroke="#26384E" stroke-width="2"/>
    <path d="M150 70V442" stroke="#26384E" stroke-width="2"/>
    <path d="M256 70V442" stroke="#26384E" stroke-width="2"/>
    <path d="M362 70V442" stroke="#26384E" stroke-width="2"/>
  </g>

  <g transform="translate(28 0)">
    <g filter="url(#shadow)">
      <path d="M104 166L186 144L268 164L350 142V350L268 372L186 352L104 374V166Z" fill="url(#panel)" stroke="#5EA2F2" stroke-width="15" stroke-linejoin="round"/>
      <path d="M186 144V352" stroke="#38639A" stroke-width="12" stroke-linecap="round"/>
      <path d="M268 164V372" stroke="#38639A" stroke-width="12" stroke-linecap="round"/>
    </g>

    <path d="M138 281C156 245 178 232 200 239C220 245 231 271 254 275C276 278 293 255 316 258C337 261 351 282 359 310" stroke="url(#route)" stroke-width="20" stroke-linecap="round" stroke-linejoin="round"/>
    <circle cx="315" cy="268" r="29" fill="#F7783B" stroke="#FFE8D7" stroke-width="7"/>
    <circle cx="315" cy="268" r="10" fill="#FFF6EE"/>
    <circle cx="178" cy="237" r="9" fill="#3FB950" stroke="#D8F8DE" stroke-width="4"/>
    <circle cx="352" cy="310" r="8" fill="#7EE3FF" stroke="#DDFBFF" stroke-width="4"/>
  </g>
</svg>
